G04*
G04 #@! TF.GenerationSoftware,Altium Limited,Altium Designer,19.1.7 (138)*
G04*
G04 Layer_Color=16711935*
%FSLAX25Y25*%
%MOIN*%
G70*
G01*
G75*
%ADD11O,0.08674X0.16548*%
%ADD12O,0.09461X0.16548*%
%ADD13C,0.09461*%
%ADD21R,0.01981X0.05918*%
%ADD22R,0.08674X0.07099*%
%ADD23C,0.07887*%
D11*
X88583Y43307D02*
D03*
X9843D02*
D03*
D12*
X90551Y9843D02*
D03*
X7874D02*
D03*
D13*
Y59055D02*
D03*
X90551D02*
D03*
D21*
X71843Y53934D02*
D03*
X69874D02*
D03*
X67906D02*
D03*
X65937D02*
D03*
X63969D02*
D03*
X62000D02*
D03*
X60032D02*
D03*
X58063D02*
D03*
X56095D02*
D03*
X54126D02*
D03*
X52158D02*
D03*
X50189D02*
D03*
X48221D02*
D03*
X46252D02*
D03*
X44284D02*
D03*
X42315D02*
D03*
X40347D02*
D03*
X38378D02*
D03*
X36410D02*
D03*
X34441D02*
D03*
X32473D02*
D03*
X30504D02*
D03*
X28536D02*
D03*
X26567D02*
D03*
X26574Y23622D02*
D03*
X28543D02*
D03*
X30511D02*
D03*
X32480D02*
D03*
X34448D02*
D03*
X36417D02*
D03*
X38385D02*
D03*
X40354D02*
D03*
X42322D02*
D03*
X44291D02*
D03*
X46259D02*
D03*
X48228D02*
D03*
X50196D02*
D03*
X52165D02*
D03*
X54133D02*
D03*
X56102D02*
D03*
X58070D02*
D03*
X60039D02*
D03*
X62007D02*
D03*
X63976D02*
D03*
X65944D02*
D03*
X67913D02*
D03*
X69881D02*
D03*
X71850D02*
D03*
D22*
X19882Y64177D02*
D03*
X78544D02*
D03*
X78535Y13380D02*
D03*
X19873D02*
D03*
D23*
X90551Y27559D02*
D03*
M02*
