G04*
G04 #@! TF.GenerationSoftware,Altium Limited,Altium Designer,19.1.7 (138)*
G04*
G04 Layer_Color=32896*
%FSLAX25Y25*%
%MOIN*%
G70*
G01*
G75*
%ADD10C,0.01000*%
G36*
X56705Y65894D02*
X56798Y65879D01*
X56883Y65856D01*
X56923Y65845D01*
X56958Y65833D01*
X56993Y65821D01*
X57022Y65810D01*
X57049Y65798D01*
X57072Y65786D01*
X57089Y65778D01*
X57101Y65772D01*
X57110Y65769D01*
X57113Y65766D01*
X57197Y65711D01*
X57273Y65650D01*
X57337Y65588D01*
X57392Y65527D01*
X57415Y65501D01*
X57433Y65475D01*
X57450Y65452D01*
X57465Y65431D01*
X57476Y65414D01*
X57485Y65402D01*
X57488Y65394D01*
X57491Y65391D01*
X57514Y65344D01*
X57537Y65300D01*
X57572Y65210D01*
X57596Y65123D01*
X57613Y65044D01*
X57619Y65009D01*
X57622Y64980D01*
X57628Y64951D01*
Y64928D01*
X57631Y64908D01*
Y64893D01*
Y64884D01*
Y64881D01*
X57628Y64835D01*
X57625Y64788D01*
X57610Y64698D01*
X57590Y64617D01*
X57578Y64579D01*
X57566Y64544D01*
X57555Y64512D01*
X57546Y64483D01*
X57534Y64459D01*
X57526Y64439D01*
X57517Y64422D01*
X57511Y64410D01*
X57505Y64401D01*
Y64398D01*
X57453Y64320D01*
X57395Y64250D01*
X57334Y64189D01*
X57275Y64139D01*
X57226Y64101D01*
X57203Y64087D01*
X57182Y64075D01*
X57168Y64064D01*
X57153Y64058D01*
X57148Y64055D01*
X57145Y64052D01*
X57054Y64011D01*
X56964Y63982D01*
X56874Y63962D01*
X56790Y63947D01*
X56755Y63942D01*
X56720Y63938D01*
X56688Y63936D01*
X56661D01*
X56641Y63933D01*
X56612D01*
X56528Y63936D01*
X56452Y63944D01*
X56385Y63956D01*
X56327Y63971D01*
X56301Y63976D01*
X56277Y63982D01*
X56260Y63988D01*
X56243Y63994D01*
X56231Y64000D01*
X56222Y64003D01*
X56216Y64006D01*
X56213D01*
X56149Y64038D01*
X56088Y64075D01*
X56033Y64116D01*
X55984Y64154D01*
X55940Y64192D01*
X55908Y64221D01*
X55896Y64232D01*
X55888Y64241D01*
X55885Y64244D01*
X55882Y64247D01*
Y64407D01*
X55943Y64340D01*
X56001Y64285D01*
X56053Y64238D01*
X56100Y64203D01*
X56141Y64174D01*
X56170Y64154D01*
X56181Y64148D01*
X56190Y64142D01*
X56193Y64139D01*
X56196D01*
X56251Y64113D01*
X56306Y64096D01*
X56362Y64081D01*
X56411Y64072D01*
X56455Y64067D01*
X56472D01*
X56490Y64064D01*
X56519D01*
X56595Y64069D01*
X56664Y64081D01*
X56726Y64096D01*
X56775Y64116D01*
X56816Y64136D01*
X56845Y64151D01*
X56857Y64160D01*
X56865Y64163D01*
X56868Y64168D01*
X56871D01*
X56918Y64212D01*
X56958Y64265D01*
X56993Y64314D01*
X57020Y64366D01*
X57043Y64413D01*
X57049Y64430D01*
X57057Y64448D01*
X57063Y64462D01*
X57066Y64474D01*
X57069Y64480D01*
Y64483D01*
X57089Y64561D01*
X57104Y64643D01*
X57116Y64718D01*
X57121Y64791D01*
X57124Y64823D01*
X57127Y64852D01*
Y64878D01*
X57130Y64899D01*
Y64919D01*
Y64931D01*
Y64940D01*
Y64943D01*
X57127Y65036D01*
X57116Y65123D01*
X57104Y65201D01*
X57095Y65239D01*
X57086Y65271D01*
X57081Y65300D01*
X57072Y65329D01*
X57066Y65353D01*
X57057Y65370D01*
X57054Y65388D01*
X57049Y65399D01*
X57046Y65405D01*
Y65408D01*
X57016Y65466D01*
X56982Y65519D01*
X56947Y65565D01*
X56912Y65603D01*
X56880Y65635D01*
X56854Y65658D01*
X56836Y65670D01*
X56833Y65676D01*
X56830D01*
X56775Y65711D01*
X56720Y65734D01*
X56664Y65751D01*
X56615Y65766D01*
X56571Y65772D01*
X56554Y65775D01*
X56536D01*
X56525Y65778D01*
X56470D01*
X56432Y65772D01*
X56359Y65757D01*
X56298Y65734D01*
X56240Y65711D01*
X56196Y65685D01*
X56176Y65673D01*
X56161Y65661D01*
X56149Y65653D01*
X56141Y65647D01*
X56135Y65644D01*
X56132Y65641D01*
X56074Y65586D01*
X56027Y65522D01*
X55986Y65458D01*
X55957Y65394D01*
X55934Y65335D01*
X55925Y65312D01*
X55917Y65292D01*
X55911Y65271D01*
X55908Y65260D01*
X55905Y65251D01*
Y65248D01*
X55850D01*
Y65900D01*
X55905D01*
X55911Y65874D01*
X55917Y65853D01*
X55922Y65836D01*
X55931Y65821D01*
X55937Y65810D01*
X55943Y65801D01*
X55946Y65798D01*
X55949Y65795D01*
X55960Y65784D01*
X55975Y65778D01*
X55998Y65766D01*
X56015Y65763D01*
X56024D01*
X56042Y65766D01*
X56065Y65772D01*
X56091Y65778D01*
X56117Y65789D01*
X56144Y65798D01*
X56167Y65804D01*
X56181Y65810D01*
X56184Y65813D01*
X56187D01*
X56269Y65842D01*
X56347Y65862D01*
X56417Y65879D01*
X56478Y65888D01*
X56507Y65894D01*
X56531D01*
X56554Y65897D01*
X56571Y65900D01*
X56656D01*
X56705Y65894D01*
D02*
G37*
G36*
X51345D02*
X51438Y65879D01*
X51522Y65856D01*
X51563Y65845D01*
X51598Y65833D01*
X51633Y65821D01*
X51662Y65810D01*
X51688Y65798D01*
X51712Y65786D01*
X51729Y65778D01*
X51741Y65772D01*
X51749Y65769D01*
X51752Y65766D01*
X51837Y65711D01*
X51912Y65650D01*
X51976Y65588D01*
X52032Y65527D01*
X52055Y65501D01*
X52073Y65475D01*
X52090Y65452D01*
X52105Y65431D01*
X52116Y65414D01*
X52125Y65402D01*
X52128Y65394D01*
X52131Y65391D01*
X52154Y65344D01*
X52177Y65300D01*
X52212Y65210D01*
X52235Y65123D01*
X52253Y65044D01*
X52259Y65009D01*
X52262Y64980D01*
X52267Y64951D01*
Y64928D01*
X52270Y64908D01*
Y64893D01*
Y64884D01*
Y64881D01*
X52267Y64835D01*
X52264Y64788D01*
X52250Y64698D01*
X52230Y64617D01*
X52218Y64579D01*
X52206Y64544D01*
X52195Y64512D01*
X52186Y64483D01*
X52174Y64459D01*
X52166Y64439D01*
X52157Y64422D01*
X52151Y64410D01*
X52145Y64401D01*
Y64398D01*
X52093Y64320D01*
X52035Y64250D01*
X51973Y64189D01*
X51915Y64139D01*
X51866Y64101D01*
X51843Y64087D01*
X51822Y64075D01*
X51808Y64064D01*
X51793Y64058D01*
X51787Y64055D01*
X51784Y64052D01*
X51694Y64011D01*
X51604Y63982D01*
X51514Y63962D01*
X51429Y63947D01*
X51394Y63942D01*
X51359Y63938D01*
X51328Y63936D01*
X51301D01*
X51281Y63933D01*
X51252D01*
X51168Y63936D01*
X51092Y63944D01*
X51025Y63956D01*
X50967Y63971D01*
X50941Y63976D01*
X50917Y63982D01*
X50900Y63988D01*
X50882Y63994D01*
X50871Y64000D01*
X50862Y64003D01*
X50856Y64006D01*
X50853D01*
X50789Y64038D01*
X50728Y64075D01*
X50673Y64116D01*
X50623Y64154D01*
X50580Y64192D01*
X50548Y64221D01*
X50536Y64232D01*
X50527Y64241D01*
X50524Y64244D01*
X50521Y64247D01*
Y64407D01*
X50582Y64340D01*
X50641Y64285D01*
X50693Y64238D01*
X50740Y64203D01*
X50780Y64174D01*
X50810Y64154D01*
X50821Y64148D01*
X50830Y64142D01*
X50833Y64139D01*
X50836D01*
X50891Y64113D01*
X50946Y64096D01*
X51002Y64081D01*
X51051Y64072D01*
X51095Y64067D01*
X51112D01*
X51130Y64064D01*
X51159D01*
X51234Y64069D01*
X51304Y64081D01*
X51365Y64096D01*
X51415Y64116D01*
X51455Y64136D01*
X51485Y64151D01*
X51496Y64160D01*
X51505Y64163D01*
X51508Y64168D01*
X51511D01*
X51557Y64212D01*
X51598Y64265D01*
X51633Y64314D01*
X51659Y64366D01*
X51683Y64413D01*
X51688Y64430D01*
X51697Y64448D01*
X51703Y64462D01*
X51706Y64474D01*
X51709Y64480D01*
Y64483D01*
X51729Y64561D01*
X51744Y64643D01*
X51755Y64718D01*
X51761Y64791D01*
X51764Y64823D01*
X51767Y64852D01*
Y64878D01*
X51770Y64899D01*
Y64919D01*
Y64931D01*
Y64940D01*
Y64943D01*
X51767Y65036D01*
X51755Y65123D01*
X51744Y65201D01*
X51735Y65239D01*
X51726Y65271D01*
X51720Y65300D01*
X51712Y65329D01*
X51706Y65353D01*
X51697Y65370D01*
X51694Y65388D01*
X51688Y65399D01*
X51685Y65405D01*
Y65408D01*
X51656Y65466D01*
X51621Y65519D01*
X51587Y65565D01*
X51552Y65603D01*
X51520Y65635D01*
X51493Y65658D01*
X51476Y65670D01*
X51473Y65676D01*
X51470D01*
X51415Y65711D01*
X51359Y65734D01*
X51304Y65751D01*
X51255Y65766D01*
X51211Y65772D01*
X51194Y65775D01*
X51176D01*
X51165Y65778D01*
X51109D01*
X51071Y65772D01*
X50999Y65757D01*
X50938Y65734D01*
X50879Y65711D01*
X50836Y65685D01*
X50815Y65673D01*
X50801Y65661D01*
X50789Y65653D01*
X50780Y65647D01*
X50775Y65644D01*
X50772Y65641D01*
X50713Y65586D01*
X50667Y65522D01*
X50626Y65458D01*
X50597Y65394D01*
X50574Y65335D01*
X50565Y65312D01*
X50556Y65292D01*
X50551Y65271D01*
X50548Y65260D01*
X50545Y65251D01*
Y65248D01*
X50489D01*
Y65900D01*
X50545D01*
X50551Y65874D01*
X50556Y65853D01*
X50562Y65836D01*
X50571Y65821D01*
X50577Y65810D01*
X50582Y65801D01*
X50585Y65798D01*
X50588Y65795D01*
X50600Y65784D01*
X50615Y65778D01*
X50638Y65766D01*
X50655Y65763D01*
X50664D01*
X50682Y65766D01*
X50705Y65772D01*
X50731Y65778D01*
X50757Y65789D01*
X50783Y65798D01*
X50807Y65804D01*
X50821Y65810D01*
X50824Y65813D01*
X50827D01*
X50908Y65842D01*
X50987Y65862D01*
X51057Y65879D01*
X51118Y65888D01*
X51147Y65894D01*
X51170D01*
X51194Y65897D01*
X51211Y65900D01*
X51296D01*
X51345Y65894D01*
D02*
G37*
G36*
X45985D02*
X46078Y65879D01*
X46162Y65856D01*
X46203Y65845D01*
X46238Y65833D01*
X46273Y65821D01*
X46302Y65810D01*
X46328Y65798D01*
X46351Y65786D01*
X46369Y65778D01*
X46380Y65772D01*
X46389Y65769D01*
X46392Y65766D01*
X46477Y65711D01*
X46552Y65650D01*
X46616Y65588D01*
X46672Y65527D01*
X46695Y65501D01*
X46712Y65475D01*
X46730Y65452D01*
X46744Y65431D01*
X46756Y65414D01*
X46765Y65402D01*
X46768Y65394D01*
X46770Y65391D01*
X46794Y65344D01*
X46817Y65300D01*
X46852Y65210D01*
X46875Y65123D01*
X46893Y65044D01*
X46898Y65009D01*
X46901Y64980D01*
X46907Y64951D01*
Y64928D01*
X46910Y64908D01*
Y64893D01*
Y64884D01*
Y64881D01*
X46907Y64835D01*
X46904Y64788D01*
X46890Y64698D01*
X46869Y64617D01*
X46858Y64579D01*
X46846Y64544D01*
X46834Y64512D01*
X46826Y64483D01*
X46814Y64459D01*
X46805Y64439D01*
X46797Y64422D01*
X46791Y64410D01*
X46785Y64401D01*
Y64398D01*
X46733Y64320D01*
X46674Y64250D01*
X46613Y64189D01*
X46555Y64139D01*
X46506Y64101D01*
X46482Y64087D01*
X46462Y64075D01*
X46447Y64064D01*
X46433Y64058D01*
X46427Y64055D01*
X46424Y64052D01*
X46334Y64011D01*
X46244Y63982D01*
X46154Y63962D01*
X46069Y63947D01*
X46034Y63942D01*
X45999Y63938D01*
X45967Y63936D01*
X45941D01*
X45921Y63933D01*
X45892D01*
X45807Y63936D01*
X45732Y63944D01*
X45665Y63956D01*
X45606Y63971D01*
X45580Y63976D01*
X45557Y63982D01*
X45540Y63988D01*
X45522Y63994D01*
X45510Y64000D01*
X45502Y64003D01*
X45496Y64006D01*
X45493D01*
X45429Y64038D01*
X45368Y64075D01*
X45312Y64116D01*
X45263Y64154D01*
X45219Y64192D01*
X45187Y64221D01*
X45176Y64232D01*
X45167Y64241D01*
X45164Y64244D01*
X45161Y64247D01*
Y64407D01*
X45222Y64340D01*
X45281Y64285D01*
X45333Y64238D01*
X45379Y64203D01*
X45420Y64174D01*
X45449Y64154D01*
X45461Y64148D01*
X45470Y64142D01*
X45473Y64139D01*
X45476D01*
X45531Y64113D01*
X45586Y64096D01*
X45641Y64081D01*
X45691Y64072D01*
X45735Y64067D01*
X45752D01*
X45769Y64064D01*
X45799D01*
X45874Y64069D01*
X45944Y64081D01*
X46005Y64096D01*
X46055Y64116D01*
X46095Y64136D01*
X46124Y64151D01*
X46136Y64160D01*
X46145Y64163D01*
X46148Y64168D01*
X46151D01*
X46197Y64212D01*
X46238Y64265D01*
X46273Y64314D01*
X46299Y64366D01*
X46322Y64413D01*
X46328Y64430D01*
X46337Y64448D01*
X46343Y64462D01*
X46346Y64474D01*
X46349Y64480D01*
Y64483D01*
X46369Y64561D01*
X46383Y64643D01*
X46395Y64718D01*
X46401Y64791D01*
X46404Y64823D01*
X46407Y64852D01*
Y64878D01*
X46410Y64899D01*
Y64919D01*
Y64931D01*
Y64940D01*
Y64943D01*
X46407Y65036D01*
X46395Y65123D01*
X46383Y65201D01*
X46375Y65239D01*
X46366Y65271D01*
X46360Y65300D01*
X46351Y65329D01*
X46346Y65353D01*
X46337Y65370D01*
X46334Y65388D01*
X46328Y65399D01*
X46325Y65405D01*
Y65408D01*
X46296Y65466D01*
X46261Y65519D01*
X46226Y65565D01*
X46191Y65603D01*
X46159Y65635D01*
X46133Y65658D01*
X46116Y65670D01*
X46113Y65676D01*
X46110D01*
X46055Y65711D01*
X45999Y65734D01*
X45944Y65751D01*
X45895Y65766D01*
X45851Y65772D01*
X45833Y65775D01*
X45816D01*
X45804Y65778D01*
X45749D01*
X45711Y65772D01*
X45638Y65757D01*
X45577Y65734D01*
X45519Y65711D01*
X45476Y65685D01*
X45455Y65673D01*
X45441Y65661D01*
X45429Y65653D01*
X45420Y65647D01*
X45414Y65644D01*
X45412Y65641D01*
X45353Y65586D01*
X45307Y65522D01*
X45266Y65458D01*
X45237Y65394D01*
X45214Y65335D01*
X45205Y65312D01*
X45196Y65292D01*
X45190Y65271D01*
X45187Y65260D01*
X45184Y65251D01*
Y65248D01*
X45129D01*
Y65900D01*
X45184D01*
X45190Y65874D01*
X45196Y65853D01*
X45202Y65836D01*
X45211Y65821D01*
X45217Y65810D01*
X45222Y65801D01*
X45225Y65798D01*
X45228Y65795D01*
X45240Y65784D01*
X45254Y65778D01*
X45278Y65766D01*
X45295Y65763D01*
X45304D01*
X45321Y65766D01*
X45344Y65772D01*
X45371Y65778D01*
X45397Y65789D01*
X45423Y65798D01*
X45446Y65804D01*
X45461Y65810D01*
X45464Y65813D01*
X45467D01*
X45548Y65842D01*
X45627Y65862D01*
X45697Y65879D01*
X45758Y65888D01*
X45787Y65894D01*
X45810D01*
X45833Y65897D01*
X45851Y65900D01*
X45935D01*
X45985Y65894D01*
D02*
G37*
G36*
X40624D02*
X40718Y65879D01*
X40802Y65856D01*
X40843Y65845D01*
X40878Y65833D01*
X40913Y65821D01*
X40942Y65810D01*
X40968Y65798D01*
X40991Y65786D01*
X41009Y65778D01*
X41020Y65772D01*
X41029Y65769D01*
X41032Y65766D01*
X41116Y65711D01*
X41192Y65650D01*
X41256Y65588D01*
X41311Y65527D01*
X41335Y65501D01*
X41352Y65475D01*
X41370Y65452D01*
X41384Y65431D01*
X41396Y65414D01*
X41404Y65402D01*
X41407Y65394D01*
X41410Y65391D01*
X41434Y65344D01*
X41457Y65300D01*
X41492Y65210D01*
X41515Y65123D01*
X41532Y65044D01*
X41538Y65009D01*
X41541Y64980D01*
X41547Y64951D01*
Y64928D01*
X41550Y64908D01*
Y64893D01*
Y64884D01*
Y64881D01*
X41547Y64835D01*
X41544Y64788D01*
X41530Y64698D01*
X41509Y64617D01*
X41497Y64579D01*
X41486Y64544D01*
X41474Y64512D01*
X41465Y64483D01*
X41454Y64459D01*
X41445Y64439D01*
X41436Y64422D01*
X41431Y64410D01*
X41425Y64401D01*
Y64398D01*
X41372Y64320D01*
X41314Y64250D01*
X41253Y64189D01*
X41195Y64139D01*
X41145Y64101D01*
X41122Y64087D01*
X41102Y64075D01*
X41087Y64064D01*
X41073Y64058D01*
X41067Y64055D01*
X41064Y64052D01*
X40974Y64011D01*
X40883Y63982D01*
X40793Y63962D01*
X40709Y63947D01*
X40674Y63942D01*
X40639Y63938D01*
X40607Y63936D01*
X40581D01*
X40560Y63933D01*
X40531D01*
X40447Y63936D01*
X40371Y63944D01*
X40304Y63956D01*
X40246Y63971D01*
X40220Y63976D01*
X40197Y63982D01*
X40179Y63988D01*
X40162Y63994D01*
X40150Y64000D01*
X40141Y64003D01*
X40136Y64006D01*
X40133D01*
X40069Y64038D01*
X40008Y64075D01*
X39952Y64116D01*
X39903Y64154D01*
X39859Y64192D01*
X39827Y64221D01*
X39816Y64232D01*
X39807Y64241D01*
X39804Y64244D01*
X39801Y64247D01*
Y64407D01*
X39862Y64340D01*
X39920Y64285D01*
X39973Y64238D01*
X40019Y64203D01*
X40060Y64174D01*
X40089Y64154D01*
X40101Y64148D01*
X40109Y64142D01*
X40112Y64139D01*
X40115D01*
X40171Y64113D01*
X40226Y64096D01*
X40281Y64081D01*
X40331Y64072D01*
X40374Y64067D01*
X40392D01*
X40409Y64064D01*
X40438D01*
X40514Y64069D01*
X40584Y64081D01*
X40645Y64096D01*
X40694Y64116D01*
X40735Y64136D01*
X40764Y64151D01*
X40776Y64160D01*
X40785Y64163D01*
X40788Y64168D01*
X40790D01*
X40837Y64212D01*
X40878Y64265D01*
X40913Y64314D01*
X40939Y64366D01*
X40962Y64413D01*
X40968Y64430D01*
X40977Y64448D01*
X40982Y64462D01*
X40985Y64474D01*
X40988Y64480D01*
Y64483D01*
X41009Y64561D01*
X41023Y64643D01*
X41035Y64718D01*
X41041Y64791D01*
X41044Y64823D01*
X41047Y64852D01*
Y64878D01*
X41049Y64899D01*
Y64919D01*
Y64931D01*
Y64940D01*
Y64943D01*
X41047Y65036D01*
X41035Y65123D01*
X41023Y65201D01*
X41015Y65239D01*
X41006Y65271D01*
X41000Y65300D01*
X40991Y65329D01*
X40985Y65353D01*
X40977Y65370D01*
X40974Y65388D01*
X40968Y65399D01*
X40965Y65405D01*
Y65408D01*
X40936Y65466D01*
X40901Y65519D01*
X40866Y65565D01*
X40831Y65603D01*
X40799Y65635D01*
X40773Y65658D01*
X40756Y65670D01*
X40753Y65676D01*
X40750D01*
X40694Y65711D01*
X40639Y65734D01*
X40584Y65751D01*
X40534Y65766D01*
X40491Y65772D01*
X40473Y65775D01*
X40456D01*
X40444Y65778D01*
X40389D01*
X40351Y65772D01*
X40278Y65757D01*
X40217Y65734D01*
X40159Y65711D01*
X40115Y65685D01*
X40095Y65673D01*
X40080Y65661D01*
X40069Y65653D01*
X40060Y65647D01*
X40054Y65644D01*
X40051Y65641D01*
X39993Y65586D01*
X39946Y65522D01*
X39906Y65458D01*
X39877Y65394D01*
X39853Y65335D01*
X39845Y65312D01*
X39836Y65292D01*
X39830Y65271D01*
X39827Y65260D01*
X39824Y65251D01*
Y65248D01*
X39769D01*
Y65900D01*
X39824D01*
X39830Y65874D01*
X39836Y65853D01*
X39842Y65836D01*
X39851Y65821D01*
X39856Y65810D01*
X39862Y65801D01*
X39865Y65798D01*
X39868Y65795D01*
X39880Y65784D01*
X39894Y65778D01*
X39917Y65766D01*
X39935Y65763D01*
X39944D01*
X39961Y65766D01*
X39984Y65772D01*
X40010Y65778D01*
X40037Y65789D01*
X40063Y65798D01*
X40086Y65804D01*
X40101Y65810D01*
X40104Y65813D01*
X40106D01*
X40188Y65842D01*
X40267Y65862D01*
X40336Y65879D01*
X40398Y65888D01*
X40427Y65894D01*
X40450D01*
X40473Y65897D01*
X40491Y65900D01*
X40575D01*
X40624Y65894D01*
D02*
G37*
G36*
X59580Y65807D02*
X59490D01*
X59467Y65801D01*
X59443Y65798D01*
X59426Y65792D01*
X59412Y65786D01*
X59403Y65784D01*
X59397Y65778D01*
X59394D01*
X59377Y65769D01*
X59365Y65757D01*
X59345Y65737D01*
X59336Y65719D01*
X59333Y65717D01*
Y65714D01*
X59327Y65696D01*
X59321Y65670D01*
X59318Y65641D01*
Y65612D01*
X59315Y65583D01*
Y65559D01*
Y65542D01*
Y65539D01*
Y65536D01*
Y64297D01*
Y64247D01*
X59318Y64209D01*
X59321Y64177D01*
X59324Y64154D01*
X59327Y64136D01*
X59330Y64128D01*
X59333Y64122D01*
Y64119D01*
X59347Y64090D01*
X59368Y64069D01*
X59382Y64058D01*
X59385Y64055D01*
X59388D01*
X59409Y64046D01*
X59429Y64038D01*
X59473Y64029D01*
X59490D01*
X59505Y64026D01*
X59580D01*
Y63976D01*
X57913D01*
X57843Y64634D01*
X57901D01*
X57927Y64556D01*
X57951Y64489D01*
X57974Y64430D01*
X57997Y64384D01*
X58015Y64346D01*
X58029Y64320D01*
X58038Y64305D01*
X58041Y64299D01*
X58070Y64259D01*
X58099Y64227D01*
X58128Y64197D01*
X58154Y64174D01*
X58178Y64157D01*
X58195Y64142D01*
X58207Y64136D01*
X58213Y64134D01*
X58250Y64116D01*
X58294Y64104D01*
X58335Y64093D01*
X58373Y64087D01*
X58407Y64084D01*
X58434Y64081D01*
X58664D01*
X58698Y64084D01*
X58728D01*
X58751Y64087D01*
X58766Y64090D01*
X58777D01*
X58780Y64093D01*
X58783D01*
X58800Y64101D01*
X58815Y64110D01*
X58835Y64128D01*
X58847Y64145D01*
X58850Y64148D01*
Y64151D01*
X58856Y64171D01*
X58859Y64197D01*
X58862Y64227D01*
Y64259D01*
X58864Y64288D01*
Y64311D01*
Y64328D01*
Y64331D01*
Y64334D01*
Y65536D01*
Y65583D01*
X58862Y65623D01*
X58859Y65653D01*
X58856Y65676D01*
Y65693D01*
X58853Y65702D01*
X58850Y65708D01*
Y65711D01*
X58832Y65740D01*
X58815Y65760D01*
X58800Y65772D01*
X58795Y65775D01*
X58774Y65786D01*
X58754Y65792D01*
X58710Y65804D01*
X58693D01*
X58678Y65807D01*
X58579D01*
Y65856D01*
X59580D01*
Y65807D01*
D02*
G37*
G36*
X54220D02*
X54130D01*
X54107Y65801D01*
X54083Y65798D01*
X54066Y65792D01*
X54051Y65786D01*
X54043Y65784D01*
X54037Y65778D01*
X54034D01*
X54016Y65769D01*
X54005Y65757D01*
X53984Y65737D01*
X53976Y65719D01*
X53973Y65717D01*
Y65714D01*
X53967Y65696D01*
X53961Y65670D01*
X53958Y65641D01*
Y65612D01*
X53955Y65583D01*
Y65559D01*
Y65542D01*
Y65539D01*
Y65536D01*
Y64297D01*
Y64247D01*
X53958Y64209D01*
X53961Y64177D01*
X53964Y64154D01*
X53967Y64136D01*
X53970Y64128D01*
X53973Y64122D01*
Y64119D01*
X53987Y64090D01*
X54008Y64069D01*
X54022Y64058D01*
X54025Y64055D01*
X54028D01*
X54048Y64046D01*
X54069Y64038D01*
X54112Y64029D01*
X54130D01*
X54144Y64026D01*
X54220D01*
Y63976D01*
X52553D01*
X52483Y64634D01*
X52541D01*
X52567Y64556D01*
X52590Y64489D01*
X52614Y64430D01*
X52637Y64384D01*
X52654Y64346D01*
X52669Y64320D01*
X52678Y64305D01*
X52681Y64299D01*
X52710Y64259D01*
X52739Y64227D01*
X52768Y64197D01*
X52794Y64174D01*
X52817Y64157D01*
X52835Y64142D01*
X52846Y64136D01*
X52852Y64134D01*
X52890Y64116D01*
X52934Y64104D01*
X52975Y64093D01*
X53012Y64087D01*
X53047Y64084D01*
X53074Y64081D01*
X53303D01*
X53338Y64084D01*
X53367D01*
X53391Y64087D01*
X53405Y64090D01*
X53417D01*
X53420Y64093D01*
X53423D01*
X53440Y64101D01*
X53455Y64110D01*
X53475Y64128D01*
X53487Y64145D01*
X53490Y64148D01*
Y64151D01*
X53496Y64171D01*
X53498Y64197D01*
X53501Y64227D01*
Y64259D01*
X53504Y64288D01*
Y64311D01*
Y64328D01*
Y64331D01*
Y64334D01*
Y65536D01*
Y65583D01*
X53501Y65623D01*
X53498Y65653D01*
X53496Y65676D01*
Y65693D01*
X53492Y65702D01*
X53490Y65708D01*
Y65711D01*
X53472Y65740D01*
X53455Y65760D01*
X53440Y65772D01*
X53434Y65775D01*
X53414Y65786D01*
X53394Y65792D01*
X53350Y65804D01*
X53333D01*
X53318Y65807D01*
X53219D01*
Y65856D01*
X54220D01*
Y65807D01*
D02*
G37*
G36*
X48860D02*
X48770D01*
X48746Y65801D01*
X48723Y65798D01*
X48706Y65792D01*
X48691Y65786D01*
X48682Y65784D01*
X48676Y65778D01*
X48674D01*
X48656Y65769D01*
X48645Y65757D01*
X48624Y65737D01*
X48615Y65719D01*
X48612Y65717D01*
Y65714D01*
X48607Y65696D01*
X48601Y65670D01*
X48598Y65641D01*
Y65612D01*
X48595Y65583D01*
Y65559D01*
Y65542D01*
Y65539D01*
Y65536D01*
Y64297D01*
Y64247D01*
X48598Y64209D01*
X48601Y64177D01*
X48604Y64154D01*
X48607Y64136D01*
X48610Y64128D01*
X48612Y64122D01*
Y64119D01*
X48627Y64090D01*
X48647Y64069D01*
X48662Y64058D01*
X48665Y64055D01*
X48668D01*
X48688Y64046D01*
X48709Y64038D01*
X48752Y64029D01*
X48770D01*
X48784Y64026D01*
X48860D01*
Y63976D01*
X47192D01*
X47123Y64634D01*
X47181D01*
X47207Y64556D01*
X47230Y64489D01*
X47254Y64430D01*
X47277Y64384D01*
X47294Y64346D01*
X47309Y64320D01*
X47317Y64305D01*
X47320Y64299D01*
X47350Y64259D01*
X47379Y64227D01*
X47408Y64197D01*
X47434Y64174D01*
X47457Y64157D01*
X47475Y64142D01*
X47486Y64136D01*
X47492Y64134D01*
X47530Y64116D01*
X47574Y64104D01*
X47614Y64093D01*
X47652Y64087D01*
X47687Y64084D01*
X47713Y64081D01*
X47943D01*
X47978Y64084D01*
X48007D01*
X48030Y64087D01*
X48045Y64090D01*
X48057D01*
X48060Y64093D01*
X48063D01*
X48080Y64101D01*
X48094Y64110D01*
X48115Y64128D01*
X48127Y64145D01*
X48129Y64148D01*
Y64151D01*
X48135Y64171D01*
X48138Y64197D01*
X48141Y64227D01*
Y64259D01*
X48144Y64288D01*
Y64311D01*
Y64328D01*
Y64331D01*
Y64334D01*
Y65536D01*
Y65583D01*
X48141Y65623D01*
X48138Y65653D01*
X48135Y65676D01*
Y65693D01*
X48132Y65702D01*
X48129Y65708D01*
Y65711D01*
X48112Y65740D01*
X48094Y65760D01*
X48080Y65772D01*
X48074Y65775D01*
X48054Y65786D01*
X48033Y65792D01*
X47990Y65804D01*
X47972D01*
X47958Y65807D01*
X47859D01*
Y65856D01*
X48860D01*
Y65807D01*
D02*
G37*
G36*
X43500D02*
X43409D01*
X43386Y65801D01*
X43363Y65798D01*
X43345Y65792D01*
X43331Y65786D01*
X43322Y65784D01*
X43316Y65778D01*
X43313D01*
X43296Y65769D01*
X43284Y65757D01*
X43264Y65737D01*
X43255Y65719D01*
X43252Y65717D01*
Y65714D01*
X43246Y65696D01*
X43241Y65670D01*
X43238Y65641D01*
Y65612D01*
X43235Y65583D01*
Y65559D01*
Y65542D01*
Y65539D01*
Y65536D01*
Y64297D01*
Y64247D01*
X43238Y64209D01*
X43241Y64177D01*
X43244Y64154D01*
X43246Y64136D01*
X43249Y64128D01*
X43252Y64122D01*
Y64119D01*
X43267Y64090D01*
X43287Y64069D01*
X43302Y64058D01*
X43305Y64055D01*
X43308D01*
X43328Y64046D01*
X43348Y64038D01*
X43392Y64029D01*
X43409D01*
X43424Y64026D01*
X43500D01*
Y63976D01*
X41832D01*
X41762Y64634D01*
X41820D01*
X41847Y64556D01*
X41870Y64489D01*
X41893Y64430D01*
X41917Y64384D01*
X41934Y64346D01*
X41949Y64320D01*
X41957Y64305D01*
X41960Y64299D01*
X41989Y64259D01*
X42018Y64227D01*
X42048Y64197D01*
X42074Y64174D01*
X42097Y64157D01*
X42114Y64142D01*
X42126Y64136D01*
X42132Y64134D01*
X42170Y64116D01*
X42213Y64104D01*
X42254Y64093D01*
X42292Y64087D01*
X42327Y64084D01*
X42353Y64081D01*
X42583D01*
X42618Y64084D01*
X42647D01*
X42670Y64087D01*
X42685Y64090D01*
X42696D01*
X42699Y64093D01*
X42702D01*
X42720Y64101D01*
X42734Y64110D01*
X42755Y64128D01*
X42766Y64145D01*
X42769Y64148D01*
Y64151D01*
X42775Y64171D01*
X42778Y64197D01*
X42781Y64227D01*
Y64259D01*
X42784Y64288D01*
Y64311D01*
Y64328D01*
Y64331D01*
Y64334D01*
Y65536D01*
Y65583D01*
X42781Y65623D01*
X42778Y65653D01*
X42775Y65676D01*
Y65693D01*
X42772Y65702D01*
X42769Y65708D01*
Y65711D01*
X42752Y65740D01*
X42734Y65760D01*
X42720Y65772D01*
X42714Y65775D01*
X42693Y65786D01*
X42673Y65792D01*
X42630Y65804D01*
X42612D01*
X42597Y65807D01*
X42499D01*
Y65856D01*
X43500D01*
Y65807D01*
D02*
G37*
G36*
X60651D02*
X60544D01*
X60520Y65801D01*
X60497Y65798D01*
X60479Y65792D01*
X60465Y65786D01*
X60456Y65784D01*
X60450Y65778D01*
X60447D01*
X60430Y65769D01*
X60418Y65757D01*
X60398Y65737D01*
X60389Y65719D01*
X60386Y65717D01*
Y65714D01*
X60381Y65696D01*
X60375Y65670D01*
X60372Y65641D01*
Y65612D01*
X60369Y65583D01*
Y65559D01*
Y65542D01*
Y65539D01*
Y65536D01*
Y64529D01*
Y64477D01*
Y64430D01*
X60372Y64387D01*
Y64349D01*
Y64317D01*
X60375Y64285D01*
Y64262D01*
X60378Y64238D01*
X60381Y64221D01*
Y64206D01*
X60383Y64192D01*
Y64183D01*
X60386Y64171D01*
Y64168D01*
X60392Y64145D01*
X60401Y64128D01*
X60410Y64110D01*
X60418Y64099D01*
X60427Y64087D01*
X60436Y64081D01*
X60439Y64078D01*
X60442Y64075D01*
X60474Y64058D01*
X60503Y64049D01*
X60517D01*
X60529Y64046D01*
X60538D01*
X60567Y64049D01*
X60596Y64052D01*
X60619Y64058D01*
X60637Y64067D01*
X60654Y64072D01*
X60666Y64078D01*
X60672Y64081D01*
X60674Y64084D01*
X60686Y64096D01*
X60695Y64104D01*
X60703Y64125D01*
X60709Y64139D01*
Y64142D01*
Y64145D01*
X60706Y64154D01*
X60703Y64168D01*
X60692Y64195D01*
X60686Y64206D01*
X60680Y64215D01*
X60674Y64221D01*
Y64224D01*
X60663Y64244D01*
X60651Y64259D01*
X60645Y64273D01*
X60640Y64282D01*
X60631Y64294D01*
Y64297D01*
X60625Y64320D01*
X60619Y64340D01*
Y64358D01*
Y64360D01*
Y64363D01*
X60622Y64393D01*
X60628Y64419D01*
X60637Y64439D01*
X60648Y64459D01*
X60660Y64477D01*
X60669Y64489D01*
X60674Y64494D01*
X60677Y64497D01*
X60701Y64515D01*
X60724Y64529D01*
X60747Y64538D01*
X60770Y64547D01*
X60791Y64550D01*
X60805Y64553D01*
X60820D01*
X60852Y64550D01*
X60878Y64544D01*
X60904Y64532D01*
X60925Y64524D01*
X60942Y64512D01*
X60954Y64500D01*
X60962Y64494D01*
X60965Y64491D01*
X60986Y64468D01*
X61000Y64442D01*
X61009Y64416D01*
X61015Y64390D01*
X61021Y64369D01*
X61024Y64352D01*
Y64337D01*
Y64334D01*
X61021Y64305D01*
X61018Y64279D01*
X61000Y64227D01*
X60977Y64177D01*
X60951Y64136D01*
X60925Y64101D01*
X60901Y64078D01*
X60884Y64061D01*
X60881Y64058D01*
X60878Y64055D01*
X60820Y64014D01*
X60756Y63985D01*
X60695Y63962D01*
X60634Y63947D01*
X60578Y63938D01*
X60555Y63936D01*
X60535D01*
X60520Y63933D01*
X60497D01*
X60427Y63936D01*
X60363Y63944D01*
X60305Y63959D01*
X60258Y63973D01*
X60218Y63988D01*
X60189Y64003D01*
X60180Y64006D01*
X60171Y64011D01*
X60168Y64014D01*
X60165D01*
X60119Y64046D01*
X60078Y64081D01*
X60043Y64113D01*
X60017Y64148D01*
X59996Y64174D01*
X59985Y64197D01*
X59976Y64212D01*
X59973Y64218D01*
X59964Y64244D01*
X59956Y64270D01*
X59941Y64331D01*
X59932Y64398D01*
X59924Y64462D01*
X59921Y64521D01*
Y64547D01*
X59918Y64570D01*
Y64587D01*
Y64602D01*
Y64611D01*
Y64614D01*
Y65536D01*
Y65583D01*
X59915Y65623D01*
X59912Y65653D01*
X59909Y65676D01*
Y65693D01*
X59906Y65702D01*
X59903Y65708D01*
Y65711D01*
X59886Y65740D01*
X59868Y65760D01*
X59854Y65772D01*
X59848Y65775D01*
X59828Y65786D01*
X59807Y65792D01*
X59764Y65804D01*
X59743D01*
X59729Y65807D01*
X59653D01*
Y65856D01*
X60651D01*
Y65807D01*
D02*
G37*
G36*
X55291D02*
X55183D01*
X55160Y65801D01*
X55137Y65798D01*
X55119Y65792D01*
X55105Y65786D01*
X55096Y65784D01*
X55090Y65778D01*
X55087D01*
X55070Y65769D01*
X55058Y65757D01*
X55038Y65737D01*
X55029Y65719D01*
X55026Y65717D01*
Y65714D01*
X55020Y65696D01*
X55014Y65670D01*
X55012Y65641D01*
Y65612D01*
X55009Y65583D01*
Y65559D01*
Y65542D01*
Y65539D01*
Y65536D01*
Y64529D01*
Y64477D01*
Y64430D01*
X55012Y64387D01*
Y64349D01*
Y64317D01*
X55014Y64285D01*
Y64262D01*
X55017Y64238D01*
X55020Y64221D01*
Y64206D01*
X55023Y64192D01*
Y64183D01*
X55026Y64171D01*
Y64168D01*
X55032Y64145D01*
X55041Y64128D01*
X55049Y64110D01*
X55058Y64099D01*
X55067Y64087D01*
X55076Y64081D01*
X55079Y64078D01*
X55081Y64075D01*
X55113Y64058D01*
X55142Y64049D01*
X55157D01*
X55169Y64046D01*
X55177D01*
X55207Y64049D01*
X55236Y64052D01*
X55259Y64058D01*
X55276Y64067D01*
X55294Y64072D01*
X55305Y64078D01*
X55311Y64081D01*
X55314Y64084D01*
X55326Y64096D01*
X55335Y64104D01*
X55343Y64125D01*
X55349Y64139D01*
Y64142D01*
Y64145D01*
X55346Y64154D01*
X55343Y64168D01*
X55332Y64195D01*
X55326Y64206D01*
X55320Y64215D01*
X55314Y64221D01*
Y64224D01*
X55303Y64244D01*
X55291Y64259D01*
X55285Y64273D01*
X55279Y64282D01*
X55271Y64294D01*
Y64297D01*
X55265Y64320D01*
X55259Y64340D01*
Y64358D01*
Y64360D01*
Y64363D01*
X55262Y64393D01*
X55268Y64419D01*
X55276Y64439D01*
X55288Y64459D01*
X55300Y64477D01*
X55308Y64489D01*
X55314Y64494D01*
X55317Y64497D01*
X55340Y64515D01*
X55364Y64529D01*
X55387Y64538D01*
X55410Y64547D01*
X55431Y64550D01*
X55445Y64553D01*
X55460D01*
X55492Y64550D01*
X55518Y64544D01*
X55544Y64532D01*
X55564Y64524D01*
X55582Y64512D01*
X55594Y64500D01*
X55602Y64494D01*
X55605Y64491D01*
X55626Y64468D01*
X55640Y64442D01*
X55649Y64416D01*
X55655Y64390D01*
X55660Y64369D01*
X55663Y64352D01*
Y64337D01*
Y64334D01*
X55660Y64305D01*
X55658Y64279D01*
X55640Y64227D01*
X55617Y64177D01*
X55591Y64136D01*
X55564Y64101D01*
X55541Y64078D01*
X55524Y64061D01*
X55521Y64058D01*
X55518Y64055D01*
X55460Y64014D01*
X55396Y63985D01*
X55335Y63962D01*
X55273Y63947D01*
X55218Y63938D01*
X55195Y63936D01*
X55174D01*
X55160Y63933D01*
X55137D01*
X55067Y63936D01*
X55003Y63944D01*
X54945Y63959D01*
X54898Y63973D01*
X54857Y63988D01*
X54828Y64003D01*
X54820Y64006D01*
X54811Y64011D01*
X54808Y64014D01*
X54805D01*
X54758Y64046D01*
X54718Y64081D01*
X54683Y64113D01*
X54656Y64148D01*
X54636Y64174D01*
X54624Y64197D01*
X54616Y64212D01*
X54613Y64218D01*
X54604Y64244D01*
X54595Y64270D01*
X54581Y64331D01*
X54572Y64398D01*
X54563Y64462D01*
X54561Y64521D01*
Y64547D01*
X54558Y64570D01*
Y64587D01*
Y64602D01*
Y64611D01*
Y64614D01*
Y65536D01*
Y65583D01*
X54555Y65623D01*
X54552Y65653D01*
X54549Y65676D01*
Y65693D01*
X54546Y65702D01*
X54543Y65708D01*
Y65711D01*
X54526Y65740D01*
X54508Y65760D01*
X54494Y65772D01*
X54488Y65775D01*
X54467Y65786D01*
X54447Y65792D01*
X54403Y65804D01*
X54383D01*
X54368Y65807D01*
X54293D01*
Y65856D01*
X55291D01*
Y65807D01*
D02*
G37*
G36*
X49931D02*
X49823D01*
X49800Y65801D01*
X49777Y65798D01*
X49759Y65792D01*
X49744Y65786D01*
X49736Y65784D01*
X49730Y65778D01*
X49727D01*
X49709Y65769D01*
X49698Y65757D01*
X49678Y65737D01*
X49669Y65719D01*
X49666Y65717D01*
Y65714D01*
X49660Y65696D01*
X49654Y65670D01*
X49651Y65641D01*
Y65612D01*
X49648Y65583D01*
Y65559D01*
Y65542D01*
Y65539D01*
Y65536D01*
Y64529D01*
Y64477D01*
Y64430D01*
X49651Y64387D01*
Y64349D01*
Y64317D01*
X49654Y64285D01*
Y64262D01*
X49657Y64238D01*
X49660Y64221D01*
Y64206D01*
X49663Y64192D01*
Y64183D01*
X49666Y64171D01*
Y64168D01*
X49672Y64145D01*
X49680Y64128D01*
X49689Y64110D01*
X49698Y64099D01*
X49707Y64087D01*
X49715Y64081D01*
X49718Y64078D01*
X49721Y64075D01*
X49753Y64058D01*
X49782Y64049D01*
X49797D01*
X49808Y64046D01*
X49817D01*
X49846Y64049D01*
X49875Y64052D01*
X49899Y64058D01*
X49916Y64067D01*
X49934Y64072D01*
X49945Y64078D01*
X49951Y64081D01*
X49954Y64084D01*
X49966Y64096D01*
X49974Y64104D01*
X49983Y64125D01*
X49989Y64139D01*
Y64142D01*
Y64145D01*
X49986Y64154D01*
X49983Y64168D01*
X49971Y64195D01*
X49966Y64206D01*
X49960Y64215D01*
X49954Y64221D01*
Y64224D01*
X49942Y64244D01*
X49931Y64259D01*
X49925Y64273D01*
X49919Y64282D01*
X49910Y64294D01*
Y64297D01*
X49905Y64320D01*
X49899Y64340D01*
Y64358D01*
Y64360D01*
Y64363D01*
X49902Y64393D01*
X49907Y64419D01*
X49916Y64439D01*
X49928Y64459D01*
X49939Y64477D01*
X49948Y64489D01*
X49954Y64494D01*
X49957Y64497D01*
X49980Y64515D01*
X50003Y64529D01*
X50027Y64538D01*
X50050Y64547D01*
X50070Y64550D01*
X50085Y64553D01*
X50099D01*
X50131Y64550D01*
X50158Y64544D01*
X50184Y64532D01*
X50204Y64524D01*
X50222Y64512D01*
X50233Y64500D01*
X50242Y64494D01*
X50245Y64491D01*
X50265Y64468D01*
X50280Y64442D01*
X50289Y64416D01*
X50295Y64390D01*
X50300Y64369D01*
X50303Y64352D01*
Y64337D01*
Y64334D01*
X50300Y64305D01*
X50297Y64279D01*
X50280Y64227D01*
X50257Y64177D01*
X50230Y64136D01*
X50204Y64101D01*
X50181Y64078D01*
X50164Y64061D01*
X50161Y64058D01*
X50158Y64055D01*
X50099Y64014D01*
X50036Y63985D01*
X49974Y63962D01*
X49913Y63947D01*
X49858Y63938D01*
X49835Y63936D01*
X49814D01*
X49800Y63933D01*
X49777D01*
X49707Y63936D01*
X49643Y63944D01*
X49584Y63959D01*
X49538Y63973D01*
X49497Y63988D01*
X49468Y64003D01*
X49459Y64006D01*
X49450Y64011D01*
X49448Y64014D01*
X49445D01*
X49398Y64046D01*
X49357Y64081D01*
X49323Y64113D01*
X49296Y64148D01*
X49276Y64174D01*
X49264Y64197D01*
X49256Y64212D01*
X49253Y64218D01*
X49244Y64244D01*
X49235Y64270D01*
X49221Y64331D01*
X49212Y64398D01*
X49203Y64462D01*
X49200Y64521D01*
Y64547D01*
X49197Y64570D01*
Y64587D01*
Y64602D01*
Y64611D01*
Y64614D01*
Y65536D01*
Y65583D01*
X49194Y65623D01*
X49192Y65653D01*
X49189Y65676D01*
Y65693D01*
X49186Y65702D01*
X49183Y65708D01*
Y65711D01*
X49165Y65740D01*
X49148Y65760D01*
X49133Y65772D01*
X49128Y65775D01*
X49107Y65786D01*
X49087Y65792D01*
X49043Y65804D01*
X49023D01*
X49008Y65807D01*
X48933D01*
Y65856D01*
X49931D01*
Y65807D01*
D02*
G37*
G36*
X44570D02*
X44463D01*
X44440Y65801D01*
X44416Y65798D01*
X44399Y65792D01*
X44384Y65786D01*
X44376Y65784D01*
X44370Y65778D01*
X44367D01*
X44349Y65769D01*
X44338Y65757D01*
X44317Y65737D01*
X44309Y65719D01*
X44306Y65717D01*
Y65714D01*
X44300Y65696D01*
X44294Y65670D01*
X44291Y65641D01*
Y65612D01*
X44288Y65583D01*
Y65559D01*
Y65542D01*
Y65539D01*
Y65536D01*
Y64529D01*
Y64477D01*
Y64430D01*
X44291Y64387D01*
Y64349D01*
Y64317D01*
X44294Y64285D01*
Y64262D01*
X44297Y64238D01*
X44300Y64221D01*
Y64206D01*
X44303Y64192D01*
Y64183D01*
X44306Y64171D01*
Y64168D01*
X44311Y64145D01*
X44320Y64128D01*
X44329Y64110D01*
X44338Y64099D01*
X44346Y64087D01*
X44355Y64081D01*
X44358Y64078D01*
X44361Y64075D01*
X44393Y64058D01*
X44422Y64049D01*
X44437D01*
X44448Y64046D01*
X44457D01*
X44486Y64049D01*
X44515Y64052D01*
X44539Y64058D01*
X44556Y64067D01*
X44573Y64072D01*
X44585Y64078D01*
X44591Y64081D01*
X44594Y64084D01*
X44605Y64096D01*
X44614Y64104D01*
X44623Y64125D01*
X44629Y64139D01*
Y64142D01*
Y64145D01*
X44626Y64154D01*
X44623Y64168D01*
X44611Y64195D01*
X44605Y64206D01*
X44600Y64215D01*
X44594Y64221D01*
Y64224D01*
X44582Y64244D01*
X44570Y64259D01*
X44565Y64273D01*
X44559Y64282D01*
X44550Y64294D01*
Y64297D01*
X44544Y64320D01*
X44539Y64340D01*
Y64358D01*
Y64360D01*
Y64363D01*
X44541Y64393D01*
X44547Y64419D01*
X44556Y64439D01*
X44568Y64459D01*
X44579Y64477D01*
X44588Y64489D01*
X44594Y64494D01*
X44597Y64497D01*
X44620Y64515D01*
X44643Y64529D01*
X44666Y64538D01*
X44690Y64547D01*
X44710Y64550D01*
X44725Y64553D01*
X44739D01*
X44771Y64550D01*
X44798Y64544D01*
X44824Y64532D01*
X44844Y64524D01*
X44862Y64512D01*
X44873Y64500D01*
X44882Y64494D01*
X44885Y64491D01*
X44905Y64468D01*
X44920Y64442D01*
X44928Y64416D01*
X44934Y64390D01*
X44940Y64369D01*
X44943Y64352D01*
Y64337D01*
Y64334D01*
X44940Y64305D01*
X44937Y64279D01*
X44920Y64227D01*
X44896Y64177D01*
X44870Y64136D01*
X44844Y64101D01*
X44821Y64078D01*
X44803Y64061D01*
X44800Y64058D01*
X44798Y64055D01*
X44739Y64014D01*
X44675Y63985D01*
X44614Y63962D01*
X44553Y63947D01*
X44498Y63938D01*
X44475Y63936D01*
X44454D01*
X44440Y63933D01*
X44416D01*
X44346Y63936D01*
X44282Y63944D01*
X44224Y63959D01*
X44178Y63973D01*
X44137Y63988D01*
X44108Y64003D01*
X44099Y64006D01*
X44090Y64011D01*
X44087Y64014D01*
X44085D01*
X44038Y64046D01*
X43997Y64081D01*
X43962Y64113D01*
X43936Y64148D01*
X43916Y64174D01*
X43904Y64197D01*
X43895Y64212D01*
X43892Y64218D01*
X43884Y64244D01*
X43875Y64270D01*
X43860Y64331D01*
X43852Y64398D01*
X43843Y64462D01*
X43840Y64521D01*
Y64547D01*
X43837Y64570D01*
Y64587D01*
Y64602D01*
Y64611D01*
Y64614D01*
Y65536D01*
Y65583D01*
X43834Y65623D01*
X43831Y65653D01*
X43828Y65676D01*
Y65693D01*
X43826Y65702D01*
X43823Y65708D01*
Y65711D01*
X43805Y65740D01*
X43788Y65760D01*
X43773Y65772D01*
X43767Y65775D01*
X43747Y65786D01*
X43727Y65792D01*
X43683Y65804D01*
X43663D01*
X43648Y65807D01*
X43572D01*
Y65856D01*
X44570D01*
Y65807D01*
D02*
G37*
G36*
X9478Y73687D02*
X9646Y73651D01*
X9799Y73600D01*
X9923Y73541D01*
X10032Y73483D01*
X10076Y73454D01*
X10112Y73432D01*
X10142Y73410D01*
X10163Y73396D01*
X10171Y73388D01*
X10178Y73381D01*
X10244Y73315D01*
X10309Y73250D01*
X10426Y73089D01*
X10521Y72929D01*
X10601Y72769D01*
X10666Y72615D01*
X10688Y72557D01*
X10710Y72499D01*
X10725Y72455D01*
X10739Y72419D01*
X10747Y72397D01*
Y72390D01*
X10615Y72346D01*
X10557Y72441D01*
X10499Y72521D01*
X10433Y72594D01*
X10360Y72659D01*
X10295Y72710D01*
X10229Y72754D01*
X10156Y72790D01*
X10091Y72820D01*
X9974Y72856D01*
X9923Y72871D01*
X9879Y72878D01*
X9843Y72885D01*
X9792D01*
X9675Y72878D01*
X9566Y72849D01*
X9471Y72805D01*
X9391Y72761D01*
X9325Y72718D01*
X9281Y72674D01*
X9245Y72645D01*
X9238Y72637D01*
X9165Y72543D01*
X9106Y72441D01*
X9070Y72338D01*
X9041Y72244D01*
X9026Y72164D01*
X9012Y72091D01*
Y72047D01*
Y72040D01*
Y72032D01*
X9026Y71843D01*
X9055Y71661D01*
X9099Y71493D01*
X9143Y71340D01*
X9172Y71267D01*
X9194Y71201D01*
X9216Y71150D01*
X9238Y71099D01*
X9259Y71063D01*
X9267Y71034D01*
X9281Y71019D01*
Y71012D01*
X9340Y70902D01*
X9427Y70771D01*
X9522Y70625D01*
X9639Y70472D01*
X9762Y70305D01*
X9886Y70137D01*
X10156Y69794D01*
X10287Y69634D01*
X10411Y69481D01*
X10521Y69335D01*
X10623Y69218D01*
X10710Y69116D01*
X10768Y69036D01*
X10798Y69007D01*
X10812Y68985D01*
X10819Y68978D01*
X10827Y68971D01*
Y68898D01*
X8064D01*
X7794Y70261D01*
X7925D01*
X7969Y70181D01*
X8005Y70108D01*
X8035Y70057D01*
X8064Y70013D01*
X8086Y69977D01*
X8100Y69955D01*
X8115Y69947D01*
Y69940D01*
X8173Y69896D01*
X8239Y69860D01*
X8283Y69845D01*
X8297Y69838D01*
X8304D01*
X8355Y69831D01*
X8428Y69823D01*
X8501Y69816D01*
X8589D01*
X8662Y69809D01*
X9806D01*
X9595Y70020D01*
X9398Y70217D01*
X9223Y70399D01*
X9070Y70574D01*
X8924Y70727D01*
X8800Y70881D01*
X8691Y71012D01*
X8596Y71128D01*
X8516Y71238D01*
X8450Y71333D01*
X8392Y71413D01*
X8348Y71478D01*
X8312Y71529D01*
X8290Y71566D01*
X8283Y71588D01*
X8275Y71595D01*
X8188Y71770D01*
X8122Y71945D01*
X8078Y72098D01*
X8042Y72244D01*
X8027Y72360D01*
X8020Y72411D01*
Y72455D01*
X8013Y72492D01*
Y72514D01*
Y72528D01*
Y72535D01*
X8020Y72630D01*
X8042Y72725D01*
X8064Y72812D01*
X8093Y72900D01*
X8129Y72973D01*
X8151Y73024D01*
X8173Y73060D01*
X8180Y73075D01*
X8246Y73177D01*
X8326Y73272D01*
X8399Y73352D01*
X8479Y73417D01*
X8545Y73469D01*
X8596Y73505D01*
X8632Y73527D01*
X8647Y73534D01*
X8756Y73592D01*
X8873Y73629D01*
X8982Y73658D01*
X9077Y73680D01*
X9165Y73694D01*
X9238Y73702D01*
X9391D01*
X9478Y73687D01*
D02*
G37*
G36*
X7269Y70676D02*
Y69955D01*
X5563D01*
Y68898D01*
X4608D01*
Y69955D01*
X4178D01*
Y70676D01*
X4608D01*
Y73702D01*
X5038D01*
X7269Y70676D01*
D02*
G37*
G36*
X89735Y72914D02*
X89677Y72790D01*
X89582Y72827D01*
X89502Y72856D01*
X89429Y72871D01*
X89363Y72885D01*
X89312Y72893D01*
X89276Y72900D01*
X89247D01*
X89166Y72893D01*
X89101Y72871D01*
X89064Y72849D01*
X89050Y72842D01*
X88991Y72798D01*
X88955Y72754D01*
X88940Y72718D01*
X88933Y72710D01*
Y72703D01*
X88919Y72659D01*
X88911Y72608D01*
X88904Y72535D01*
Y72470D01*
X88897Y72404D01*
Y72346D01*
Y72309D01*
Y72302D01*
Y72295D01*
Y69853D01*
Y69772D01*
Y69700D01*
X88904Y69576D01*
X88911Y69474D01*
X88919Y69393D01*
X88933Y69342D01*
X88940Y69306D01*
X88948Y69284D01*
Y69277D01*
X88970Y69233D01*
X88991Y69196D01*
X89050Y69138D01*
X89101Y69102D01*
X89115Y69087D01*
X89123D01*
X89174Y69065D01*
X89239Y69051D01*
X89378Y69029D01*
X89443D01*
X89494Y69022D01*
X89669D01*
Y68898D01*
X87191D01*
Y69022D01*
X87395D01*
X87475Y69036D01*
X87541Y69043D01*
X87599Y69058D01*
X87643Y69073D01*
X87672Y69080D01*
X87687Y69095D01*
X87694D01*
X87730Y69124D01*
X87767Y69160D01*
X87810Y69226D01*
X87832Y69248D01*
X87840Y69269D01*
X87847Y69284D01*
Y69291D01*
X87854Y69320D01*
X87862Y69350D01*
X87869Y69430D01*
X87876Y69525D01*
Y69619D01*
X87883Y69707D01*
Y69780D01*
Y69809D01*
Y69831D01*
Y69845D01*
Y69853D01*
Y73702D01*
X88000D01*
X89735Y72914D01*
D02*
G37*
G36*
X92141Y73687D02*
X92279Y73658D01*
X92410Y73614D01*
X92527Y73563D01*
X92622Y73505D01*
X92695Y73461D01*
X92724Y73447D01*
X92746Y73432D01*
X92753Y73417D01*
X92760D01*
X92884Y73301D01*
X92994Y73170D01*
X93088Y73031D01*
X93161Y72900D01*
X93220Y72783D01*
X93242Y72732D01*
X93256Y72688D01*
X93271Y72652D01*
X93285Y72623D01*
X93292Y72608D01*
Y72601D01*
X93365Y72353D01*
X93417Y72113D01*
X93453Y71872D01*
X93467Y71763D01*
X93475Y71661D01*
X93489Y71558D01*
Y71471D01*
X93497Y71391D01*
X93504Y71325D01*
Y71267D01*
Y71230D01*
Y71201D01*
Y71194D01*
X93497Y70983D01*
X93482Y70786D01*
X93460Y70596D01*
X93431Y70436D01*
X93417Y70363D01*
X93402Y70297D01*
X93395Y70239D01*
X93380Y70195D01*
X93373Y70152D01*
X93365Y70122D01*
X93358Y70108D01*
Y70100D01*
X93314Y69962D01*
X93263Y69838D01*
X93220Y69729D01*
X93176Y69634D01*
X93139Y69561D01*
X93110Y69510D01*
X93096Y69481D01*
X93088Y69466D01*
X93008Y69350D01*
X92921Y69255D01*
X92840Y69167D01*
X92768Y69102D01*
X92702Y69043D01*
X92651Y69000D01*
X92622Y68978D01*
X92607Y68971D01*
X92498Y68912D01*
X92396Y68876D01*
X92286Y68847D01*
X92192Y68825D01*
X92111Y68810D01*
X92046Y68803D01*
X91988D01*
X91878Y68810D01*
X91776Y68825D01*
X91681Y68847D01*
X91601Y68876D01*
X91536Y68898D01*
X91485Y68919D01*
X91455Y68934D01*
X91441Y68941D01*
X91346Y69000D01*
X91266Y69058D01*
X91186Y69124D01*
X91120Y69182D01*
X91062Y69240D01*
X91025Y69284D01*
X90996Y69313D01*
X90989Y69320D01*
X90916Y69415D01*
X90850Y69517D01*
X90799Y69619D01*
X90748Y69714D01*
X90719Y69802D01*
X90690Y69875D01*
X90675Y69918D01*
X90668Y69925D01*
Y69933D01*
X90602Y70166D01*
X90552Y70399D01*
X90515Y70618D01*
X90486Y70822D01*
X90479Y70917D01*
X90471Y70997D01*
Y71070D01*
X90464Y71136D01*
Y71187D01*
Y71223D01*
Y71245D01*
Y71252D01*
X90471Y71537D01*
X90500Y71799D01*
X90515Y71923D01*
X90537Y72040D01*
X90559Y72149D01*
X90581Y72244D01*
X90602Y72338D01*
X90624Y72419D01*
X90646Y72492D01*
X90661Y72550D01*
X90675Y72601D01*
X90690Y72637D01*
X90697Y72659D01*
Y72667D01*
X90770Y72834D01*
X90850Y72987D01*
X90938Y73111D01*
X91025Y73221D01*
X91098Y73308D01*
X91164Y73366D01*
X91208Y73403D01*
X91215Y73417D01*
X91222D01*
X91361Y73512D01*
X91492Y73585D01*
X91623Y73636D01*
X91740Y73665D01*
X91842Y73687D01*
X91915Y73694D01*
X91944Y73702D01*
X91988D01*
X92141Y73687D01*
D02*
G37*
%LPC*%
G36*
X5563Y72521D02*
Y70676D01*
X6934D01*
X5563Y72521D01*
D02*
G37*
G36*
X92024Y73461D02*
X92002D01*
X91937Y73454D01*
X91871Y73447D01*
X91827Y73425D01*
X91783Y73403D01*
X91754Y73381D01*
X91733Y73366D01*
X91725Y73352D01*
X91718Y73344D01*
X91696Y73308D01*
X91674Y73272D01*
X91638Y73170D01*
X91609Y73067D01*
X91587Y72958D01*
X91565Y72856D01*
X91558Y72776D01*
Y72739D01*
X91550Y72718D01*
Y72703D01*
Y72696D01*
Y72645D01*
X91543Y72579D01*
Y72484D01*
Y72382D01*
Y72273D01*
X91536Y72149D01*
Y71901D01*
Y71777D01*
Y71661D01*
Y71551D01*
Y71456D01*
Y71376D01*
Y71311D01*
Y71274D01*
Y71260D01*
X91550Y69765D01*
X91565Y69619D01*
X91587Y69503D01*
X91616Y69393D01*
X91645Y69313D01*
X91667Y69248D01*
X91696Y69204D01*
X91711Y69175D01*
X91718Y69167D01*
X91754Y69131D01*
X91798Y69102D01*
X91842Y69087D01*
X91878Y69073D01*
X91922Y69065D01*
X91951Y69058D01*
X91980D01*
X92039Y69065D01*
X92090Y69073D01*
X92133Y69087D01*
X92170Y69102D01*
X92199Y69116D01*
X92221Y69124D01*
X92235Y69138D01*
X92243D01*
X92279Y69175D01*
X92308Y69226D01*
X92352Y69335D01*
X92367Y69386D01*
X92381Y69430D01*
X92389Y69459D01*
Y69466D01*
X92403Y69539D01*
X92410Y69619D01*
X92418Y69714D01*
X92425Y69823D01*
X92440Y70042D01*
X92447Y70268D01*
Y70370D01*
Y70472D01*
X92454Y70567D01*
Y70647D01*
Y70713D01*
Y70764D01*
Y70793D01*
Y70808D01*
Y70975D01*
Y71136D01*
Y71281D01*
Y71427D01*
Y71558D01*
X92447Y71682D01*
Y71799D01*
Y71916D01*
Y72113D01*
X92440Y72287D01*
Y72433D01*
X92432Y72565D01*
X92425Y72667D01*
Y72754D01*
X92418Y72820D01*
Y72871D01*
Y72907D01*
X92410Y72929D01*
Y72936D01*
Y72944D01*
X92389Y73053D01*
X92367Y73140D01*
X92338Y73213D01*
X92308Y73272D01*
X92279Y73315D01*
X92257Y73352D01*
X92243Y73366D01*
X92235Y73374D01*
X92199Y73403D01*
X92163Y73425D01*
X92082Y73454D01*
X92053D01*
X92024Y73461D01*
D02*
G37*
%LPD*%
D10*
X16933Y77562D02*
X81493Y77562D01*
X16929Y68236D02*
Y77562D01*
X81493Y68236D02*
Y77562D01*
X81693Y55906D02*
Y60117D01*
X73343Y55906D02*
X81693D01*
X16732D02*
X24606D01*
X16732D02*
Y59843D01*
X16924Y-6D02*
X81484Y-6D01*
X81488D02*
Y9320D01*
X16924Y-6D02*
Y9320D01*
X16724Y17439D02*
Y21651D01*
X25074D01*
X73811D02*
X81685D01*
Y17714D02*
Y21651D01*
M02*
